# xmcd CD database file
#
# Track frame offsets:
#	150
#	42441
#	74819
#	105234
#	144639
#	203953
#	251472
#	281070
#
# Disc length: 3935 seconds
#
# Revision: 0
# Processed by: cddbd v1.5.2PL0 Copyright (c) Steve Scherf et al.
# Submitted via: CDex 1.51
#
DISCID=7c0f5d08
DTITLE=Manuela and Carl/Reichel/Zingaro - Jin Hi Kim - Live in Berlin
DYEAR=1999
DGENRE=Jazz
TTITLE0=Ei!
TTITLE1=Im
TTITLE2=pro
TTITLE3=vi
TTITLE4=sie
TTITLE5=re
TTITLE6=rei...!
TTITLE7=Those Were The Days
EXTD=YEAR: 1999
EXTT0=
EXTT1=
EXTT2=
EXTT3=
EXTT4=
EXTT5=
EXTT6=
EXTT7=
PLAYORDER=
